<svg width="108" height="108" viewBox="0 0 108 108" fill="none" xmlns="http://www.w3.org/2000/svg">
<path d="M40.4946 94.5169H22.4871C17.5145 94.5169 13.4834 90.4858 13.4834 85.5132V22.4869C13.4834 17.5143 17.5145 13.4832 22.4871 13.4832H76.5096C81.4823 13.4832 85.5134 17.5143 85.5134 22.4869V35.9925" stroke="white" stroke-width="4" stroke-linecap="round" stroke-linejoin="round"/>
<path fill-rule="evenodd" clip-rule="evenodd" d="M54 94.5169L65.8129 93.0583C66.644 92.9556 67.4171 92.5785 68.0098 91.9869L96.6328 63.364C99.803 60.2072 99.8151 55.0784 96.6598 51.9067L96.6328 51.8842V51.8842C93.476 48.7139 88.3472 48.7018 85.1755 51.8572V51.8842L56.8137 80.246C56.2367 80.8191 55.8635 81.5655 55.7512 82.3709L54 94.5169Z" stroke="white" stroke-width="4" stroke-linecap="round" stroke-linejoin="round"/>
<path fill-rule="evenodd" clip-rule="evenodd" d="M35.9921 76.5095V76.5095C32.2626 76.5095 29.2393 73.4862 29.2393 69.7567V69.7567C29.2393 66.0272 32.2626 63.0039 35.9921 63.0039V63.0039C39.7215 63.0039 42.7449 66.0272 42.7449 69.7567V69.7567C42.7449 73.4862 39.7215 76.5095 35.9921 76.5095Z" stroke="white" stroke-width="4" stroke-linecap="round" stroke-linejoin="round"/>
<path d="M29.2393 31.4907H65.2543" stroke="white" stroke-width="4" stroke-linecap="round" stroke-linejoin="round"/>
<path d="M29.2393 47.2473H47.2468" stroke="white" stroke-width="4" stroke-linecap="round" stroke-linejoin="round"/>
</svg>
