<svg width="108" height="108" viewBox="0 0 108 108" fill="none" xmlns="http://www.w3.org/2000/svg">
<path fill-rule="evenodd" clip-rule="evenodd" d="M41.5127 29.0339V29.0339C41.5127 22.1399 47.1017 16.5464 54.0002 16.5464V16.5464C60.8942 16.5464 66.4877 22.1354 66.4877 29.0339V29.0339C66.4877 35.9279 60.8987 41.5214 54.0002 41.5214V41.5214C47.1017 41.5124 41.5127 35.9234 41.5127 29.0339Z" stroke="white" stroke-width="4" stroke-linecap="round" stroke-linejoin="round"/>
<path fill-rule="evenodd" clip-rule="evenodd" d="M11.25 78.966V78.966C11.25 72.072 16.839 66.4785 23.7375 66.4785V66.4785C30.6315 66.4785 36.225 72.0675 36.225 78.966V78.966C36.2205 85.86 30.636 91.4535 23.7375 91.4535V91.4535C16.839 91.4535 11.25 85.8645 11.25 78.966Z" stroke="white" stroke-width="4" stroke-linecap="round" stroke-linejoin="round"/>
<path fill-rule="evenodd" clip-rule="evenodd" d="M71.7793 78.966V78.966C71.7793 72.072 77.3683 66.4785 84.2668 66.4785V66.4785C91.1608 66.4785 96.7543 72.0675 96.7543 78.966V78.966C96.7543 85.86 91.1653 91.4535 84.2668 91.4535V91.4535C77.3638 91.4535 71.7793 85.8645 71.7793 78.966H71.7793Z" stroke="white" stroke-width="4" stroke-linecap="round" stroke-linejoin="round"/>
<path d="M38.2052 53.6399L29.1602 67.7699" stroke="white" stroke-width="4" stroke-linecap="round" stroke-linejoin="round"/>
<path d="M60.75 39.51L69.795 53.64" stroke="white" stroke-width="4" stroke-linecap="round" stroke-linejoin="round"/>
<path d="M71.775 78.9751H54" stroke="white" stroke-width="4" stroke-linecap="round" stroke-linejoin="round"/>
</svg>
