<svg width="28" height="28" viewBox="0 0 28 28" fill="none" xmlns="http://www.w3.org/2000/svg">
<path d="M13.9999 2.37988C7.58325 2.37988 2.33325 7.61822 2.33325 14.0699C2.33325 19.9032 6.60325 24.7449 12.1799 25.6199V17.4532H9.21659V14.0699H12.1799V11.4915C12.1799 8.56322 13.9183 6.95322 16.5899 6.95322C17.8616 6.95322 19.1916 7.17488 19.1916 7.17488V10.0565H17.7216C16.2749 10.0565 15.8199 10.9549 15.8199 11.8765V14.0699H19.0633L18.5383 17.4532H15.8199V25.6199C18.5691 25.1857 21.0725 23.783 22.8782 21.665C24.6838 19.5469 25.6728 16.8531 25.6666 14.0699C25.6666 7.61822 20.4166 2.37988 13.9999 2.37988Z" fill="white"/>
</svg>
