<svg width="21" height="20" viewBox="0 0 21 20" fill="none" xmlns="http://www.w3.org/2000/svg">
<path d="M9.78411 0.503301C10.0022 -0.167843 10.9517 -0.167843 11.1697 0.5033L13.1436 6.57826C13.2411 6.8784 13.5208 7.08161 13.8364 7.08161H20.224C20.9297 7.08161 21.2231 7.98463 20.6522 8.39942L15.4845 12.154C15.2292 12.3395 15.1224 12.6683 15.2199 12.9684L17.1938 19.0434C17.4118 19.7145 16.6437 20.2726 16.0728 19.8578L10.9051 16.1033C10.6498 15.9178 10.3041 15.9178 10.0487 16.1033L4.88108 19.8578C4.31017 20.2726 3.54201 19.7145 3.76008 19.0434L5.73396 12.9684C5.83148 12.6683 5.72464 12.3395 5.46932 12.154L0.301658 8.39942C-0.269251 7.98463 0.0241573 7.08161 0.729839 7.08161H7.11743C7.43302 7.08161 7.71272 6.8784 7.81024 6.57826L9.78411 0.503301Z" fill="#FCEC36"/>
</svg>
